<svg width="198" height="198" viewBox="0 0 198 198" fill="none" xmlns="http://www.w3.org/2000/svg">
<g filter="url(#filter0_d)">
<circle cx="95" cy="95" r="95" fill="white"/>
</g>
<path d="M142.141 60.625H137.453V50.8594C137.453 47.6285 134.825 45 131.594 45H64.4062C61.1754 45 58.5469 47.6285 58.5469 50.8594V60.625H53.8594C50.6285 60.625 48 63.2535 48 66.4844V122.734C48 125.965 50.6285 128.593 53.8594 128.593H88.2344V133.28H84.5187C81.2879 133.28 78.6594 135.909 78.6594 139.14V143.047C78.6594 144.126 79.5338 145 80.6125 145H115.388C116.466 145 117.341 144.126 117.341 143.047V139.14C117.341 135.909 114.712 133.28 111.481 133.28H107.766V128.593H142.141C145.371 128.593 148 125.965 148 122.734V66.4844C148 63.2535 145.371 60.625 142.141 60.625ZM142.141 64.5312C143.218 64.5312 144.094 65.4074 144.094 66.4844V111.406H137.453V64.5312H142.141ZM64.4062 48.9062H131.594C132.671 48.9062 133.547 49.7824 133.547 50.8594V60.625H62.4531V50.8594C62.4531 49.7824 63.3293 48.9062 64.4062 48.9062ZM53.8594 64.5312H58.5469V79.1777C58.5469 80.2564 59.4213 81.1309 60.5 81.1309C61.5787 81.1309 62.4531 80.2564 62.4531 79.1777V64.5312H133.547V111.406H123.586V104.97C123.586 103.891 122.712 103.016 121.633 103.016H119.092C118.645 101.479 118.032 100 117.259 98.5951L119.057 96.7975C119.82 96.0348 119.82 94.798 119.057 94.0352L113.127 88.1055C112.364 87.343 111.128 87.343 110.365 88.1055L108.567 89.9033C107.163 89.1303 105.684 88.5174 104.146 88.0709V85.5297C104.146 84.451 103.271 83.5766 102.193 83.5766H93.8068C92.7281 83.5766 91.8537 84.451 91.8537 85.5297V88.0709C90.3158 88.5176 88.8373 89.1303 87.4324 89.9033L85.6348 88.1055C84.8721 87.343 83.6353 87.343 82.8725 88.1055L76.9428 94.0352C76.1801 94.7979 76.1801 96.0346 76.9428 96.7975L78.7406 98.5951C77.9676 99.9998 77.3547 101.479 76.908 103.016H74.3672C73.2885 103.016 72.4141 103.891 72.4141 104.97V111.406H62.4531V96.7559C62.4531 95.6771 61.5787 94.8027 60.5 94.8027C59.4213 94.8027 58.5469 95.6771 58.5469 96.7559V111.406H51.9062V66.4844C51.9062 65.4074 52.7824 64.5312 53.8594 64.5312ZM82.5791 96.909L81.0863 95.4162L84.2539 92.2486L85.7467 93.7414C86.3984 94.3928 87.417 94.5004 88.1904 93.999C90.0387 92.8006 92.0654 91.9605 94.2145 91.5023C95.116 91.3102 95.7604 90.5139 95.7604 89.5922V87.4824H100.24V89.5922C100.24 90.5139 100.884 91.3102 101.786 91.5023C103.935 91.9605 105.962 92.8004 107.81 93.999C108.583 94.5004 109.602 94.393 110.254 93.7414L111.746 92.2486L114.914 95.4162L113.421 96.909C112.77 97.5607 112.662 98.5793 113.164 99.3527C114.362 101.201 115.202 103.228 115.66 105.377C115.853 106.278 116.649 106.923 117.571 106.923H119.68V111.406H107.503C107.677 110.673 107.767 109.921 107.767 109.162C107.767 103.777 103.385 99.3957 98 99.3957C92.6146 99.3957 88.2332 103.777 88.2332 109.162C88.2332 109.921 88.3229 110.673 88.4967 111.406H76.3203V106.923H78.4299C79.3516 106.923 80.1479 106.278 80.34 105.377C80.7982 103.228 81.6383 101.201 82.8367 99.3527C83.3383 98.5795 83.2309 97.5607 82.5791 96.909ZM92.1395 109.162C92.1395 105.931 94.7684 103.302 98 103.302C101.232 103.302 103.861 105.931 103.861 109.162C103.861 109.934 103.704 110.696 103.408 111.406H92.5918C92.2955 110.696 92.1395 109.934 92.1395 109.162ZM113.434 139.14V141.094H82.5656V139.14C82.5656 138.063 83.4418 137.187 84.5187 137.187H111.481C112.558 137.187 113.434 138.063 113.434 139.14ZM103.859 133.28H92.1406V128.593H103.859V133.28ZM142.141 124.687H53.8594C52.7824 124.687 51.9062 123.811 51.9062 122.734V115.312H144.094V122.734C144.094 123.811 143.218 124.687 142.141 124.687Z" fill="#E1CDAE"/>
<path d="M103.859 56.7188H124.953C126.032 56.7188 126.906 55.8443 126.906 54.7656C126.906 53.6869 126.032 52.8125 124.953 52.8125H103.859C102.781 52.8125 101.906 53.6869 101.906 54.7656C101.906 55.8443 102.781 56.7188 103.859 56.7188Z" fill="#E1CDAE"/>
<path d="M79.6406 56.7188C80.1543 56.7188 80.6582 56.5098 81.0215 56.1465C81.3848 55.7832 81.5938 55.2793 81.5938 54.7656C81.5938 54.252 81.3848 53.748 81.0215 53.3848C80.6582 53.0215 80.1543 52.8125 79.6406 52.8125C79.127 52.8125 78.623 53.0215 78.2598 53.3848C77.8965 53.748 77.6875 54.252 77.6875 54.7656C77.6875 55.2793 77.8965 55.7832 78.2598 56.1465C78.623 56.5098 79.127 56.7188 79.6406 56.7188Z" fill="#E1CDAE"/>
<path d="M71.0469 56.7188C71.5605 56.7188 72.0645 56.5098 72.4277 56.1465C72.791 55.7832 73 55.2793 73 54.7656C73 54.252 72.791 53.748 72.4277 53.3848C72.0645 53.0215 71.5605 52.8125 71.0469 52.8125C70.5332 52.8125 70.0293 53.0215 69.666 53.3848C69.3027 53.748 69.0938 54.252 69.0938 54.7656C69.0938 55.2793 69.3027 55.7832 69.666 56.1465C70.0293 56.5098 70.5332 56.7188 71.0469 56.7188Z" fill="#E1CDAE"/>
<path d="M88.2344 56.7188C88.748 56.7188 89.252 56.5098 89.6152 56.1465C89.9785 55.7832 90.1875 55.2793 90.1875 54.7656C90.1875 54.252 89.9785 53.748 89.6152 53.3848C89.252 53.0215 88.748 52.8125 88.2344 52.8125C87.7207 52.8125 87.2168 53.0215 86.8535 53.3848C86.4902 53.748 86.2812 54.252 86.2812 54.7656C86.2812 55.2793 86.4902 55.7832 86.8535 56.1465C87.2168 56.5098 87.7207 56.7188 88.2344 56.7188Z" fill="#E1CDAE"/>
<path d="M69.875 73.9059H74.523C75.6018 73.9059 76.4762 73.0315 76.4762 71.9528C76.4762 70.874 75.6018 69.9996 74.523 69.9996H69.875C68.7963 69.9996 67.9219 70.874 67.9219 71.9528C67.9219 73.0315 68.7963 73.9059 69.875 73.9059Z" fill="#E1CDAE"/>
<path d="M83.1167 73.9059H101.034C102.113 73.9059 102.987 73.0315 102.987 71.9528C102.987 70.874 102.113 69.9996 101.034 69.9996H83.1167C82.038 69.9996 81.1636 70.874 81.1636 71.9528C81.1636 73.0315 82.038 73.9059 83.1167 73.9059Z" fill="#E1CDAE"/>
<path d="M69.875 83.2805H81.2031C82.2818 83.2805 83.1562 82.4061 83.1562 81.3274C83.1562 80.2487 82.2818 79.3743 81.2031 79.3743H69.875C68.7963 79.3743 67.9219 80.2487 67.9219 81.3274C67.9219 82.4061 68.7963 83.2805 69.875 83.2805Z" fill="#E1CDAE"/>
<path d="M109.628 73.9059H126.125C127.204 73.9059 128.078 73.0315 128.078 71.9528C128.078 70.874 127.204 69.9996 126.125 69.9996H109.628C108.549 69.9996 107.675 70.874 107.675 71.9528C107.675 73.0315 108.549 73.9059 109.628 73.9059Z" fill="#E1CDAE"/>
<path d="M126.125 79.3743H112.758C111.679 79.3743 110.805 80.2487 110.805 81.3274C110.805 82.4061 111.679 83.2805 112.758 83.2805H126.125C127.204 83.2805 128.078 82.4061 128.078 81.3274C128.078 80.2487 127.204 79.3743 126.125 79.3743Z" fill="#E1CDAE"/>
<path d="M60.5 89.9199C61.0137 89.9199 61.5176 89.7109 61.8809 89.3477C62.2441 88.9844 62.4531 88.4805 62.4531 87.9668C62.4531 87.4531 62.2441 86.9492 61.8809 86.5859C61.5176 86.2227 61.0137 86.0137 60.5 86.0137C59.9863 86.0137 59.4824 86.2227 59.1191 86.5859C58.7559 86.9492 58.5469 87.4531 58.5469 87.9668C58.5469 88.4805 58.7559 88.9844 59.1191 89.3477C59.4824 89.7109 59.9863 89.9199 60.5 89.9199Z" fill="#E1CDAE"/>
<defs>
<filter id="filter0_d" x="0" y="0" width="198" height="198" filterUnits="userSpaceOnUse" color-interpolation-filters="sRGB">
<feFlood flood-opacity="0" result="BackgroundImageFix"/>
<feColorMatrix in="SourceAlpha" type="matrix" values="0 0 0 0 0 0 0 0 0 0 0 0 0 0 0 0 0 0 127 0"/>
<feOffset dx="4" dy="4"/>
<feGaussianBlur stdDeviation="2"/>
<feColorMatrix type="matrix" values="0 0 0 0 0.882353 0 0 0 0 0.803922 0 0 0 0 0.682353 0 0 0 1 0"/>
<feBlend mode="normal" in2="BackgroundImageFix" result="effect1_dropShadow"/>
<feBlend mode="normal" in="SourceGraphic" in2="effect1_dropShadow" result="shape"/>
</filter>
</defs>
</svg>
