<svg width="30" height="30" viewBox="0 0 30 30" fill="none" xmlns="http://www.w3.org/2000/svg">
<path d="M14.9999 0C23.2847 0 30 6.71625 30 15.0001C30 23.2848 23.2847 30 14.9999 30C6.71522 30 0 23.2847 0 15.0001C0 6.71625 6.71532 0 14.9999 0Z" fill="#E1CDAE"/>
<path d="M8 12.5018C8.04971 12.1508 8.08758 11.7978 8.15075 11.4493C8.50889 9.47546 9.90628 8.13251 11.9043 8.06369C14.31 7.98103 16.723 7.97666 19.1283 8.06333C21.303 8.14162 22.8779 9.75185 22.9458 11.9272C23.0181 14.2372 23.0181 16.5527 22.9458 18.8626C22.8779 21.038 21.3035 22.6481 19.1285 22.7265C16.7232 22.8134 14.3096 22.8156 11.9045 22.7253C9.72949 22.6435 8.22595 21.0296 8.08048 18.851C8.06791 18.6626 8.02749 18.4757 8 18.2882C8 16.3594 8 14.4305 8 12.5018ZM15.502 21.4373C16.6028 21.4373 17.7047 21.4703 18.8041 21.4297C20.5277 21.3658 21.5879 20.3371 21.6281 18.615C21.678 16.4693 21.678 14.3207 21.6281 12.1748C21.5879 10.4532 20.527 9.40045 18.8041 9.36386C16.6172 9.31761 14.428 9.31797 12.2411 9.36386C10.5313 9.39972 9.46803 10.4312 9.4216 12.1339C9.36261 14.3067 9.36261 16.4834 9.4216 18.6562C9.46803 20.3587 10.5313 21.3663 12.2413 21.4297C13.3268 21.4701 14.4151 21.4373 15.502 21.4373Z" fill="white"/>
<path d="M15.5001 11.574C13.3892 11.574 11.6777 13.2853 11.6777 15.3962C11.6777 17.5073 13.3892 19.2186 15.5001 19.2186C17.6112 19.2186 19.3225 17.5073 19.3225 15.3962C19.3225 13.2853 17.6112 11.574 15.5001 11.574ZM15.5001 17.9026C14.1158 17.9026 12.9937 16.7805 12.9937 15.3962C12.9937 14.012 14.1158 12.8899 15.5001 12.8899C16.8844 12.8899 18.0065 14.012 18.0065 15.3962C18.0065 16.7805 16.8844 17.9026 15.5001 17.9026Z" fill="white"/>
<path d="M20.4549 11.3996C20.4549 11.9018 20.0478 12.3089 19.5457 12.3089C19.0435 12.3089 18.6362 11.9018 18.6362 11.3996C18.6362 10.8973 19.0435 10.4902 19.5457 10.4902C20.0478 10.4902 20.4549 10.8973 20.4549 11.3996Z" fill="white"/>
</svg>
