<svg width="198" height="198" viewBox="0 0 198 198" fill="none" xmlns="http://www.w3.org/2000/svg">
<g filter="url(#filter0_d)">
<circle cx="95" cy="95" r="95" fill="white"/>
</g>
<path d="M142.906 112.575L139.431 109.11C138.195 107.876 136.548 107.195 134.792 107.195C133.67 107.195 132.592 107.475 131.637 107.998L125.089 101.458L125.408 101.139C128.065 98.4775 128.064 94.1523 125.408 91.4996C124.459 90.5488 123.275 89.9148 121.984 89.648C122.162 89.0345 122.255 88.3919 122.255 87.7343C122.255 85.9072 121.545 84.1939 120.261 82.9144C119.311 81.9636 118.127 81.3296 116.837 81.0628C117.014 80.4494 117.108 79.807 117.108 79.1492C117.108 77.3218 116.398 75.6087 115.111 74.3273C114.139 73.3566 112.945 72.7421 111.69 72.4806C112.361 70.1667 111.788 67.5634 109.967 65.74C108.452 64.2312 106.396 63.5828 104.415 63.7929L91.4392 61.3369C89.4603 60.9615 86.989 60.7132 85.429 62.1361C85.3306 62.2259 85.2302 62.3292 85.1313 62.4443C82.7126 61.5626 79.8915 62.0876 77.9546 64.0224C76.6696 65.3058 75.9618 67.0183 75.9618 68.8445C75.9618 69.5023 76.055 70.1447 76.2325 70.7583C74.9431 71.0249 73.7605 71.6582 72.8146 72.6058C71.5271 73.888 70.8171 75.5986 70.8157 77.4226C70.8151 78.082 70.9087 78.7265 71.0872 79.3417C69.7972 79.6078 68.6138 80.2398 67.6649 81.1875C66.3774 82.4736 65.6685 84.1871 65.6685 86.0123C65.6685 87.4103 66.0858 88.7421 66.8593 89.8671C65.8827 90.1982 64.9882 90.7492 64.2392 91.4974C61.581 94.1523 61.58 98.4777 64.2409 101.143L64.5587 101.46L58.0099 107.997C55.5761 106.851 52.5774 107.28 50.569 109.286L47.0921 112.753C45.8554 113.988 45.1745 115.636 45.1743 117.392C45.1743 119.149 45.8554 120.797 47.0921 122.032L51.4313 126.366C52.1999 127.134 53.4454 127.133 54.213 126.365C54.9808 125.596 54.98 124.351 54.2114 123.583L49.8722 119.249C49.3796 118.757 49.1083 118.098 49.1083 117.393C49.1083 116.688 49.3796 116.028 49.871 115.538L53.3481 112.07C54.2169 111.202 55.5466 111.073 56.5563 111.677C56.6274 111.784 56.7097 111.885 56.8038 111.98C56.9724 112.149 57.1647 112.278 57.369 112.373L77.3091 132.284C77.4038 132.49 77.5339 132.684 77.7036 132.854C77.8688 133.02 78.0573 133.148 78.2573 133.242C78.679 133.719 78.912 134.327 78.912 134.977C78.912 135.682 78.6407 136.341 78.1481 136.833L74.6745 140.303C73.6481 141.325 71.9786 141.325 70.9554 140.306L66.6161 135.966C65.8479 135.198 64.6026 135.198 63.8345 135.966C63.0663 136.735 63.0663 137.98 63.8345 138.748L68.1769 143.091C69.455 144.364 71.1335 145 72.8128 145C74.4925 145 76.1729 144.363 77.4526 143.089L80.9284 139.617C82.1651 138.382 82.8462 136.734 82.8462 134.977C82.8462 133.723 82.4976 132.526 81.8493 131.494L89.2196 124.132C89.2274 124.124 89.2353 124.116 89.2433 124.108C90.0872 123.236 92.4374 123.399 94.7103 123.557C96.3251 123.669 98.1255 123.794 99.8845 123.591L107.956 131.653C107.433 132.606 107.154 133.682 107.154 134.803C107.154 136.558 107.835 138.205 109.071 139.44L112.547 142.912C113.783 144.146 115.431 144.826 117.186 144.826C118.942 144.826 120.589 144.146 121.825 142.912L142.907 121.855C144.144 120.62 144.825 118.972 144.825 117.216C144.825 115.459 144.144 113.811 142.906 112.575ZM90.7067 65.2021L99.2394 66.8171L94.1321 71.9224C93.3421 71.5427 92.2593 70.8345 91.0714 69.6982C89.4454 68.1427 88.2823 66.3468 88.1765 65.2267C88.1763 65.2261 88.1763 65.2255 88.1763 65.225C88.1763 65.2248 88.1761 65.2246 88.1761 65.2244C88.1685 65.1439 88.1665 65.0796 88.1675 65.0306C88.4247 64.9681 89.1079 64.8988 90.7067 65.2021ZM80.7345 66.8058C81.731 65.8103 83.279 65.6955 84.405 66.458C85.0431 69.1333 87.3253 71.5582 88.3521 72.5406C89.113 73.2687 91.5546 75.4517 94.019 76.0517C94.3524 76.5296 94.5339 77.0994 94.5339 77.7005C94.5339 78.475 94.236 79.199 93.6933 79.7412C93.1521 80.2833 92.4269 80.5818 91.6511 80.5818C90.8751 80.5818 90.1499 80.2833 89.6062 79.7386L89.606 79.7384L89.605 79.7374L80.7343 70.8828C80.1935 70.3427 79.8956 69.6187 79.8956 68.8445C79.8958 68.0701 80.1937 67.346 80.7345 66.8058ZM75.5946 75.3892C76.1358 74.8472 76.8603 74.5486 77.6349 74.5486C78.4104 74.5486 79.1372 74.8478 79.6819 75.3919L86.8249 82.5207C87.9497 83.6472 87.9497 85.4804 86.8288 86.6031C86.2847 87.1451 85.5569 87.4435 84.7798 87.4435C84.0026 87.4435 83.2749 87.1451 82.7331 86.6054L82.7329 86.6052L77.314 81.1875C77.3056 81.1791 77.2964 81.1712 77.2878 81.1626L75.5925 79.4681C75.0485 78.9248 74.7491 78.1994 74.7497 77.4255C74.7505 76.6542 75.0489 75.9326 75.5946 75.3892ZM70.445 83.9708C70.9866 83.43 71.7126 83.1322 72.4896 83.1322C73.2601 83.1322 73.9798 83.4257 74.519 83.9572L79.9546 89.3902C80.4966 89.93 80.7952 90.6533 80.7952 91.4267C80.7952 92.2 80.4966 92.9232 79.9524 93.4652C79.411 94.0058 78.6858 94.3037 77.9103 94.3037C77.1335 94.3037 76.406 94.005 75.8638 93.4652L73.8933 91.497C73.8929 91.4964 73.8923 91.496 73.8919 91.4957L70.4452 88.0531C69.9019 87.5103 69.6026 86.7853 69.6026 86.0119C69.6026 85.2386 69.9019 84.5134 70.445 83.9708ZM67.0192 94.2806C67.5632 93.7373 68.2901 93.438 69.0661 93.438C69.8419 93.438 70.5687 93.7371 71.1124 94.28L73.0856 96.2509C73.6278 96.7908 73.9263 97.514 73.9263 98.2874C73.9263 99.0609 73.6276 99.7839 73.0815 100.328C72.5403 100.87 71.8151 101.169 71.0394 101.169C70.2634 101.169 69.5382 100.87 68.9931 100.324L68.746 100.078C68.7427 100.075 68.7401 100.071 68.737 100.068C68.7333 100.065 68.7294 100.061 68.7257 100.058L67.0212 98.3601C65.8964 97.233 65.8954 95.4031 67.0192 94.2806ZM107.104 116.636C106.336 115.867 105.091 115.866 104.322 116.634L102.572 118.382C100.909 120.045 97.8964 119.835 94.9825 119.633C91.8183 119.413 88.5462 119.186 86.4288 121.36L79.1837 128.596L61.0659 110.505L67.4776 104.105C68.5374 104.755 69.7603 105.103 71.0397 105.103C72.8677 105.103 74.5817 104.394 75.862 103.112C77.1509 101.828 77.8608 100.115 77.8608 98.2876C77.8608 98.2707 77.8597 98.2539 77.8597 98.2369C77.8767 98.2371 77.8937 98.238 77.9106 98.238C79.736 98.238 81.4487 97.5316 82.7308 96.2511C84.0196 94.9675 84.7296 93.2542 84.7296 91.4271C84.7296 91.4101 84.7284 91.3933 84.7284 91.3763C84.7456 91.3763 84.7628 91.3775 84.7802 91.3775C86.605 91.3775 88.3187 90.6718 89.6093 89.3865C90.9491 88.0445 91.6118 86.2777 91.5991 84.5146C91.6167 84.5148 91.6343 84.5158 91.6519 84.5158C93.4798 84.5156 95.1937 83.8072 96.4759 82.5226C97.7608 81.2392 98.4686 79.5267 98.4686 77.7005C98.4686 76.4234 98.1214 75.2025 97.4739 74.1449L103.094 68.5275C103.512 68.1105 104.029 67.8488 104.57 67.7408C104.629 67.7345 104.686 67.7251 104.744 67.7138C105.612 67.5941 106.524 67.8621 107.188 68.5234C108.313 69.6501 108.313 71.4833 107.192 72.606L105.481 74.3105C105.475 74.3162 105.469 74.3212 105.463 74.3269L103.492 76.2949C102.723 77.0624 102.722 78.308 103.49 79.0765C104.258 79.8453 105.503 79.8458 106.272 79.0783L107.99 77.3623C107.991 77.3619 107.991 77.3615 107.991 77.3611L108.251 77.1023C109.379 75.9847 111.206 75.9871 112.333 77.1123C112.875 77.6521 113.174 78.3753 113.174 79.1488C113.174 79.922 112.875 80.6453 112.329 81.1894L110.608 82.9142C110.607 82.9144 110.607 82.9146 110.607 82.915L108.636 84.8781C107.866 85.6447 107.864 86.8902 108.63 87.6597C109.397 88.4294 110.642 88.4318 111.412 87.6654L113.392 85.6933C113.933 85.1511 114.658 84.8527 115.434 84.8527C116.21 84.8527 116.935 85.1511 117.481 85.6972C118.023 86.2373 118.321 86.9605 118.321 87.7339C118.321 88.5072 118.023 89.2304 117.477 89.7734L114.046 93.2064C113.278 93.9748 113.278 95.2201 114.046 95.988C114.43 96.372 114.933 96.5638 115.437 96.5638C115.94 96.5638 116.444 96.3716 116.828 95.9874L118.51 94.305C118.519 94.2958 118.53 94.2878 118.539 94.2783C119.08 93.7361 119.806 93.4376 120.581 93.4376C121.357 93.4376 122.083 93.7361 122.626 94.2802C123.749 95.4027 123.748 97.2328 122.626 98.3574L120.916 100.065C120.915 100.066 120.914 100.067 120.914 100.067C120.913 100.068 120.913 100.069 120.912 100.069L118.198 102.78C117.429 103.548 117.429 104.793 118.196 105.562C118.58 105.946 119.084 106.139 119.588 106.139C120.091 106.139 120.594 105.947 120.978 105.563L122.306 104.237L128.668 110.593L110.552 128.687L104.061 122.204C104.514 121.913 104.947 121.57 105.353 121.164L107.102 119.417C107.871 118.65 107.872 117.404 107.104 116.636ZM140.127 119.072L119.045 140.128C118.552 140.621 117.892 140.892 117.186 140.892C116.481 140.892 115.82 140.621 115.327 140.128L111.851 136.656C111.358 136.165 111.087 135.506 111.087 134.803C111.087 134.1 111.358 133.442 111.851 132.95L132.933 111.893C133.427 111.4 134.087 111.129 134.792 111.129C135.498 111.129 136.158 111.4 136.652 111.894L140.127 115.359C140.62 115.851 140.891 116.51 140.891 117.215C140.891 117.921 140.62 118.58 140.127 119.072Z" fill="#E1CDAE"/>
<path d="M94.8259 57.707C95.9122 57.707 96.7929 56.8264 96.7929 55.74V46.967C96.7929 45.8807 95.9122 45 94.8259 45C93.7395 45 92.8589 45.8807 92.8589 46.967V55.74C92.8591 56.8264 93.7397 57.707 94.8259 57.707Z" fill="#E1CDAE"/>
<path d="M68.7065 56.0489C69.0905 56.4321 69.5932 56.6235 70.096 56.6235C70.5999 56.6235 71.104 56.4309 71.4881 56.0459C72.2555 55.277 72.2543 54.0317 71.4854 53.2643L64.3178 46.111C63.5491 45.3436 62.3036 45.3446 61.5362 46.1137C60.7688 46.8826 60.77 48.128 61.5389 48.8953L68.7065 56.0489Z" fill="#E1CDAE"/>
<path d="M119.555 56.6234C120.058 56.6234 120.561 56.4316 120.945 56.0482L128.107 48.8947C128.876 48.1271 128.876 46.8816 128.109 46.113C127.341 45.3445 126.096 45.3437 125.327 46.1115L118.165 53.265C117.396 54.0326 117.395 55.2781 118.163 56.0466C118.547 56.4312 119.051 56.6234 119.555 56.6234Z" fill="#E1CDAE"/>
<defs>
<filter id="filter0_d" x="0" y="0" width="198" height="198" filterUnits="userSpaceOnUse" color-interpolation-filters="sRGB">
<feFlood flood-opacity="0" result="BackgroundImageFix"/>
<feColorMatrix in="SourceAlpha" type="matrix" values="0 0 0 0 0 0 0 0 0 0 0 0 0 0 0 0 0 0 127 0"/>
<feOffset dx="4" dy="4"/>
<feGaussianBlur stdDeviation="2"/>
<feColorMatrix type="matrix" values="0 0 0 0 0.882353 0 0 0 0 0.803922 0 0 0 0 0.682353 0 0 0 1 0"/>
<feBlend mode="normal" in2="BackgroundImageFix" result="effect1_dropShadow"/>
<feBlend mode="normal" in="SourceGraphic" in2="effect1_dropShadow" result="shape"/>
</filter>
</defs>
</svg>
