<svg width="178" height="86" viewBox="0 0 178 86" fill="none" xmlns="http://www.w3.org/2000/svg">
<g filter="url(#filter0_d)">
<path d="M36.856 65.1308L21.6569 16.2696V69.2113C21.6569 72.1408 20.8376 74.338 19.1992 75.8028C17.6038 77.2676 15.4694 78 12.7961 78C10.209 78 8.09623 77.2851 6.45774 75.8551C4.81925 74.3903 4 72.1757 4 69.2113V8.52716C4 5.17907 5.07795 2.92958 7.23386 1.77867C9.38977 0.592891 12.3002 0 15.9653 0H21.9156C25.4944 0 28.0815 0.261569 29.6769 0.784708C31.3154 1.30785 32.5227 2.2495 33.2988 3.60966C34.0749 4.96982 34.9588 7.18444 35.9506 10.2535L49.7268 52.2616L63.5031 10.2535C64.4948 7.18444 65.3787 4.96982 66.1548 3.60966C66.931 2.2495 68.1167 1.30785 69.7121 0.784708C71.3506 0.261569 73.9592 0 77.538 0H83.4883C87.1534 0 90.0639 0.592891 92.2198 1.77867C94.3757 2.92958 95.4536 5.17907 95.4536 8.52716V69.2113C95.4536 72.1408 94.6344 74.338 92.9959 75.8028C91.4005 77.2676 89.2446 78 86.5282 78C83.9842 78 81.893 77.2676 80.2545 75.8028C78.616 74.338 77.7967 72.1408 77.7967 69.2113V16.2696L62.5976 65.1308C61.6059 68.3045 60.7866 70.6412 60.1399 72.1408C59.5362 73.6056 58.3936 74.9484 56.712 76.169C55.0304 77.3897 52.702 78 49.7268 78C47.4847 78 45.5875 77.5989 44.0352 76.7968C42.483 76.0295 41.2757 75.0356 40.4133 73.8149C39.5509 72.5942 38.861 71.2515 38.3436 69.7867C37.8693 68.2871 37.3735 66.7351 36.856 65.1308Z" fill="white"/>
<path d="M164.169 12.8169H143.214V68.5312C143.214 71.7398 142.33 74.1288 140.562 75.6982C138.794 77.2327 136.509 78 133.706 78C130.86 78 128.532 77.2153 126.721 75.6459C124.953 74.0765 124.069 71.7049 124.069 68.5312V12.8169H103.114C99.8367 12.8169 97.4005 12.2414 95.8052 11.0905C94.2098 9.90476 93.4121 8.35278 93.4121 6.43461C93.4121 4.44668 94.2314 2.87726 95.8698 1.72636C97.5515 0.575453 99.9661 0 103.114 0H164.169C167.489 0 169.947 0.592891 171.542 1.77867C173.181 2.96445 174 4.51643 174 6.43461C174 8.35278 173.181 9.90476 171.542 11.0905C169.904 12.2414 167.446 12.8169 164.169 12.8169Z" fill="white"/>
</g>
<g filter="url(#filter1_d)">
<ellipse cx="108.909" cy="50.4298" rx="4.90878" ry="4.42978" fill="white"/>
</g>
<defs>
<filter id="filter0_d" x="0" y="0" width="178" height="86" filterUnits="userSpaceOnUse" color-interpolation-filters="sRGB">
<feFlood flood-opacity="0" result="BackgroundImageFix"/>
<feColorMatrix in="SourceAlpha" type="matrix" values="0 0 0 0 0 0 0 0 0 0 0 0 0 0 0 0 0 0 127 0"/>
<feOffset dy="4"/>
<feGaussianBlur stdDeviation="2"/>
<feColorMatrix type="matrix" values="0 0 0 0 0 0 0 0 0 0 0 0 0 0 0 0 0 0 0.25 0"/>
<feBlend mode="normal" in2="BackgroundImageFix" result="effect1_dropShadow"/>
<feBlend mode="normal" in="SourceGraphic" in2="effect1_dropShadow" result="shape"/>
</filter>
<filter id="filter1_d" x="100" y="46" width="17.8176" height="16.8596" filterUnits="userSpaceOnUse" color-interpolation-filters="sRGB">
<feFlood flood-opacity="0" result="BackgroundImageFix"/>
<feColorMatrix in="SourceAlpha" type="matrix" values="0 0 0 0 0 0 0 0 0 0 0 0 0 0 0 0 0 0 127 0"/>
<feOffset dy="4"/>
<feGaussianBlur stdDeviation="2"/>
<feColorMatrix type="matrix" values="0 0 0 0 0 0 0 0 0 0 0 0 0 0 0 0 0 0 0.25 0"/>
<feBlend mode="normal" in2="BackgroundImageFix" result="effect1_dropShadow"/>
<feBlend mode="normal" in="SourceGraphic" in2="effect1_dropShadow" result="shape"/>
</filter>
</defs>
</svg>
