<svg width="198" height="198" viewBox="0 0 198 198" fill="none" xmlns="http://www.w3.org/2000/svg">
<g filter="url(#filter0_d)">
<circle cx="95" cy="95" r="95" fill="white"/>
</g>
<path d="M136.278 54.3762H134.966C137.466 50.3056 136.543 44.8407 132.53 41.8635C128.207 38.6559 122.062 39.6884 119.045 44.1975L112.234 54.3765H53.7222C48.9128 54.3765 45 58.2892 45 63.0987V118.863C45 123.673 48.9128 127.585 53.7222 127.585H87.6019L85.042 138.337H79.517C75.9163 138.337 72.9868 141.266 72.9868 144.867V146.231H66.1758C64.9833 146.231 64.0167 147.198 64.0167 148.39C64.0167 149.582 64.9833 150.549 66.1758 150.549H123.824C125.017 150.549 125.983 149.582 125.983 148.39C125.983 147.198 125.017 146.231 123.824 146.231H117.013V144.867C117.013 141.266 114.084 138.337 110.483 138.337H104.958L102.398 127.585H136.278C141.087 127.585 145 123.673 145 118.863V106.593V63.0985C145 58.289 141.087 54.3762 136.278 54.3762ZM105.341 92.3334C101.965 94.6966 95.6411 91.4844 89.6017 94.7072C88.128 87.052 89.0571 79.8524 96.7274 78.2633C97.7187 78.0566 98.7859 77.9632 99.6945 77.9813C102.291 79.9074 104.917 81.8556 107.505 83.7766C108.639 87.0731 108.213 90.3231 105.341 92.3334ZM107.517 69.1902L113.629 73.7248L108.929 79.4553C106.994 78.0197 105.33 76.7856 103.395 75.3498C103.797 74.7493 107.15 69.7388 107.517 69.1902ZM122.634 46.5991C124.269 44.1547 127.605 43.586 129.957 45.3317C132.311 47.0775 132.732 50.4341 130.867 52.7079C127.558 56.7418 119.692 66.3328 116.37 70.3823L109.921 65.5972L122.634 46.5991ZM112.695 144.867V146.231H77.305V144.867C77.305 143.648 78.2973 142.655 79.517 142.655H110.483C111.702 142.655 112.695 143.648 112.695 144.867ZM100.519 138.337H89.481L92.0408 127.585H97.959L100.519 138.337ZM140.682 118.863C140.682 121.292 138.706 123.267 136.278 123.267C132.85 123.267 57.576 123.267 53.7224 123.267C51.2941 123.267 49.3185 121.292 49.3185 118.863V108.752H55.4884C56.6809 108.752 57.6475 107.785 57.6475 106.593C57.6475 105.401 56.6809 104.434 55.4884 104.434H49.318V63.0985C49.318 60.6701 51.2936 58.6945 53.722 58.6945H109.344C107.276 61.7857 101.241 70.8039 99.3298 73.6602C95.0986 73.6984 90.8742 75.1725 88.1088 78.4008C84.3457 82.7935 83.6846 89.6958 86.1438 98.9157C86.5642 100.492 88.5314 101.057 89.7217 99.9201C95.3045 94.5856 102.258 100.404 108.484 95.3646C112.285 92.2879 113.185 87.3966 111.752 82.8227C113.689 80.4606 129.6 61.0622 131.542 58.6945H136.277C138.706 58.6945 140.681 60.6701 140.681 63.0985V104.434H72.7609C71.5684 104.434 70.6018 105.4 70.6018 106.593C70.6018 107.785 71.5684 108.752 72.7609 108.752H140.682V118.863Z" fill="#E1CDAE"/>
<defs>
<filter id="filter0_d" x="0" y="0" width="198" height="198" filterUnits="userSpaceOnUse" color-interpolation-filters="sRGB">
<feFlood flood-opacity="0" result="BackgroundImageFix"/>
<feColorMatrix in="SourceAlpha" type="matrix" values="0 0 0 0 0 0 0 0 0 0 0 0 0 0 0 0 0 0 127 0"/>
<feOffset dx="4" dy="4"/>
<feGaussianBlur stdDeviation="2"/>
<feColorMatrix type="matrix" values="0 0 0 0 0.882353 0 0 0 0 0.803922 0 0 0 0 0.682353 0 0 0 1 0"/>
<feBlend mode="normal" in2="BackgroundImageFix" result="effect1_dropShadow"/>
<feBlend mode="normal" in="SourceGraphic" in2="effect1_dropShadow" result="shape"/>
</filter>
</defs>
</svg>
